<?xml version="1.0" encoding="UTF-8" standalone="no"?>
<!DOCTYPE svg PUBLIC "-//W3C//DTD SVG 1.1//EN" "http://www.w3.org/Graphics/SVG/1.1/DTD/svg11.dtd">
<svg version="1.1" xmlns="http://www.w3.org/2000/svg" xmlns:xlink="http://www.w3.org/1999/xlink" preserveAspectRatio="xMidYMid meet" viewBox="0 0 640 640" width="640" height="640"><defs><path d="M270.67 105.45L270.67 62.81L369.33 62.81L369.33 105.45L270.67 105.45Z" id="ayCm0SIaG"></path><path d="M365.83 13.54L365.98 13.56L366.13 13.59L366.28 13.62L366.42 13.66L366.56 13.7L366.7 13.74L366.84 13.79L366.97 13.84L367.1 13.9L367.23 13.95L367.36 14.02L367.48 14.08L367.6 14.15L367.72 14.22L367.83 14.29L367.94 14.37L368.05 14.45L368.15 14.53L368.25 14.61L368.34 14.7L368.44 14.79L368.52 14.88L368.61 14.98L368.69 15.08L368.76 15.18L368.84 15.28L368.9 15.38L368.97 15.49L369.02 15.59L369.08 15.7L369.13 15.81L369.17 15.93L369.21 16.04L369.24 16.16L369.27 16.27L369.3 16.39L369.32 16.51L369.33 16.63L369.33 41.48L270.67 41.48L270.67 16.63L270.68 16.51L270.7 16.39L270.73 16.27L270.76 16.16L270.79 16.04L270.83 15.93L270.87 15.81L270.92 15.7L270.98 15.59L271.03 15.49L271.1 15.38L271.16 15.28L271.24 15.18L271.31 15.08L271.39 14.98L271.48 14.88L271.56 14.79L271.66 14.7L271.75 14.61L271.85 14.53L271.95 14.45L272.06 14.37L272.17 14.29L272.28 14.22L272.4 14.15L272.52 14.08L272.64 14.02L272.77 13.95L272.9 13.9L273.03 13.84L273.16 13.79L273.3 13.74L273.44 13.7L273.58 13.66L273.72 13.62L273.87 13.59L274.02 13.56L274.17 13.54L274.32 13.52L274.47 13.5L365.53 13.5L365.68 13.52L365.83 13.54Z" id="cVA7NP48V"></path><path d="M369.32 159.82L369.32 160.14L369.33 160.46L369.36 160.78L369.4 161.09L369.45 161.4L369.52 161.71L369.59 162.02L369.68 162.33L369.78 162.63L369.89 162.93L370.01 163.22L370.14 163.52L370.28 163.8L370.44 164.09L370.6 164.37L370.78 164.65L370.96 164.92L371.16 165.19L371.36 165.45L371.58 165.71L371.81 165.96L372.04 166.21L372.29 166.45L372.54 166.68L372.8 166.91L373.08 167.14L373.36 167.36L373.65 167.57L373.95 167.77L374.25 167.97L374.57 168.16L374.89 168.34L375.23 168.52L375.57 168.69L375.91 168.85L376.27 169L376.63 169.15L377 169.29L377.38 169.42L380.75 170.51L384.06 171.68L387.32 172.94L390.51 174.26L393.64 175.67L396.7 177.15L399.7 178.7L402.63 180.32L405.49 182L408.29 183.76L411.01 185.58L413.65 187.46L416.23 189.4L418.72 191.41L421.14 193.47L423.49 195.58L425.75 197.76L427.93 199.98L430.03 202.26L432.04 204.58L433.97 206.95L435.82 209.37L437.57 211.83L439.24 214.34L440.82 216.88L442.3 219.47L443.69 222.09L444.99 224.74L446.19 227.44L447.29 230.16L448.3 232.91L449.2 235.69L450.01 238.5L450.71 241.34L451.3 244.19L451.8 247.07L452.18 249.97L452.46 252.89L452.62 255.82L452.68 258.77L452.68 626.5L187.32 626.5L187.32 258.77L187.38 255.84L187.54 252.92L187.82 250.01L188.21 247.13L188.7 244.26L189.29 241.42L190 238.6L190.8 235.8L191.71 233.03L192.71 230.28L193.82 227.57L195.02 224.88L196.32 222.23L197.71 219.62L199.19 217.04L200.77 214.49L202.44 211.99L204.2 209.53L206.04 207.11L207.98 204.74L209.99 202.42L212.09 200.14L214.28 197.91L216.54 195.74L218.89 193.62L221.31 191.55L223.81 189.54L226.38 187.59L229.03 185.7L231.76 183.87L234.55 182.11L237.42 180.41L240.35 178.78L243.35 177.21L246.42 175.72L249.55 174.3L252.74 172.96L256 171.69L259.32 170.5L262.7 169.39L263.07 169.26L263.44 169.12L263.8 168.97L264.15 168.82L264.49 168.66L264.83 168.49L265.16 168.31L265.48 168.13L265.79 167.94L266.1 167.74L266.39 167.53L266.68 167.32L266.96 167.1L267.23 166.88L267.49 166.65L267.74 166.41L267.99 166.17L268.22 165.93L268.44 165.67L268.66 165.42L268.86 165.16L269.06 164.89L269.24 164.62L269.41 164.34L269.58 164.06L269.73 163.78L269.87 163.49L270 163.2L270.12 162.91L270.23 162.61L270.33 162.31L270.41 162L270.49 161.7L270.55 161.39L270.6 161.08L270.64 160.77L270.67 160.45L270.68 160.13L270.68 159.81L270.67 159.49L270.67 126.77L369.33 126.77L369.33 159.5L369.32 159.82ZM224.18 347.99L223.63 348.02L223.08 348.06L222.54 348.12L222 348.2L221.47 348.29L220.95 348.4L220.44 348.53L219.94 348.67L219.45 348.82L218.96 348.99L218.49 349.17L218.03 349.37L217.58 349.58L217.14 349.81L216.71 350.04L216.29 350.29L215.89 350.55L215.5 350.82L215.12 351.11L214.76 351.4L214.41 351.71L214.08 352.02L213.76 352.35L213.46 352.69L213.17 353.03L212.91 353.38L212.65 353.75L212.42 354.12L212.2 354.5L212.01 354.88L211.83 355.28L211.67 355.68L211.53 356.08L211.41 356.5L211.31 356.92L211.24 357.34L211.18 357.77L211.15 358.21L211.14 358.65L211.14 550.54L211.15 550.98L211.18 551.42L211.24 551.85L211.31 552.27L211.41 552.69L211.53 553.1L211.67 553.51L211.83 553.91L212.01 554.3L212.2 554.69L212.42 555.07L212.65 555.44L212.91 555.8L213.17 556.16L213.46 556.5L213.76 556.84L214.08 557.16L214.41 557.48L214.76 557.78L215.12 558.08L215.5 558.36L215.89 558.64L216.29 558.9L216.71 559.15L217.14 559.38L217.58 559.6L218.03 559.82L218.49 560.01L218.96 560.2L219.45 560.36L219.94 560.52L220.44 560.66L220.95 560.78L221.47 560.89L222 560.99L222.54 561.06L223.08 561.12L223.63 561.17L224.18 561.19L224.74 561.2L416.96 561.2L417.52 561.19L418.07 561.17L418.62 561.12L419.16 561.06L419.7 560.99L420.23 560.89L420.75 560.78L421.26 560.66L421.76 560.52L422.25 560.36L422.74 560.2L423.21 560.01L423.67 559.82L424.13 559.6L424.57 559.38L424.99 559.15L425.41 558.9L425.81 558.64L426.2 558.36L426.58 558.08L426.94 557.78L427.29 557.48L427.62 557.16L427.94 556.84L428.24 556.5L428.53 556.16L428.8 555.8L429.05 555.44L429.28 555.07L429.5 554.69L429.69 554.3L429.87 553.91L430.03 553.51L430.17 553.1L430.29 552.69L430.39 552.27L430.47 551.85L430.52 551.42L430.55 550.98L430.57 550.54L430.57 358.65L430.55 358.21L430.52 357.77L430.47 357.34L430.39 356.92L430.29 356.5L430.17 356.08L430.03 355.68L429.87 355.28L429.69 354.88L429.5 354.5L429.28 354.12L429.05 353.75L428.8 353.38L428.53 353.03L428.24 352.69L427.94 352.35L427.62 352.02L427.29 351.71L426.94 351.4L426.58 351.11L426.2 350.82L425.81 350.55L425.41 350.29L424.99 350.04L424.57 349.81L424.13 349.58L423.67 349.37L423.21 349.17L422.74 348.99L422.25 348.82L421.76 348.67L421.26 348.53L420.75 348.4L420.23 348.29L419.7 348.2L419.16 348.12L418.62 348.06L418.07 348.02L417.52 347.99L416.96 347.98L224.74 347.98L224.18 347.99Z" id="aUOE7Frf6"></path><path d="M238.35 539.88L238.35 369.31L401.65 369.31L401.65 539.88L238.35 539.88Z" id="b2VF065GVV"></path></defs><g><g><use xlink:href="#ayCm0SIaG" opacity="1" fill="#000000" fill-opacity="1"></use><g><use xlink:href="#ayCm0SIaG" opacity="1" fill-opacity="0" stroke="#000000" stroke-width="1" stroke-opacity="0"></use></g></g><g><use xlink:href="#cVA7NP48V" opacity="1" fill="#000000" fill-opacity="1"></use><g><use xlink:href="#cVA7NP48V" opacity="1" fill-opacity="0" stroke="#000000" stroke-width="1" stroke-opacity="0"></use></g></g><g><use xlink:href="#aUOE7Frf6" opacity="1" fill="#000000" fill-opacity="1"></use><g><use xlink:href="#aUOE7Frf6" opacity="1" fill-opacity="0" stroke="#000000" stroke-width="1" stroke-opacity="0"></use></g></g><g><use xlink:href="#b2VF065GVV" opacity="1" fill="#000000" fill-opacity="1"></use><g><use xlink:href="#b2VF065GVV" opacity="1" fill-opacity="0" stroke="#000000" stroke-width="1" stroke-opacity="0"></use></g></g></g></svg>