<svg height="512pt" viewBox="0 0 512 512.00015" width="512pt" xmlns="http://www.w3.org/2000/svg"><path d="m130.25 148.457031-42.414062-42.417969 106.039062-106.039062 42.417969 42.417969zm0 0"/><path d="m405.957031 424.171875-42.417969-42.417969 106.042969-106.039062 42.414063 42.414062zm0 0"/><path d="m270.28125 93.257812c-9.464844-5.714843-18.726562-10.734374-27.601562-14.816406l-76.40625 76.410156c4.082031 8.871094 9.101562 18.132813 14.8125 27.601563zm0 0"/><path d="m304.027344 314.011719 97.816406-97.816407c-13.691406-18.957031-30.09375-38.316406-48.910156-57.132812s-38.175782-35.21875-57.132813-48.90625l-97.8125 97.8125c13.6875 18.957031 30.089844 38.320312 48.90625 57.136719 18.8125 18.816406 38.175781 35.214843 57.132813 48.90625zm0 0"/><path d="m433.554688 269.316406c-4.082032-8.875-9.101563-18.132812-14.8125-27.601562l-89.199219 89.195312c9.46875 5.710938 18.730469 10.730469 27.605469 14.8125zm0 0"/><path d="m236.695312 296.511719c-3.648437-3.449219-7.429687-6.617188-11.011718-10.199219-3.582032-3.578125-6.746094-7.359375-10.195313-11.007812l-30.828125 30.832031h-57.011718l18.304687 54.902343-63.648437-21.207031 21.222656 63.621094-63.617188-21.207031 24.101563 71.769531h-27.808594l-36.203125 36.777344 21.207031 21.207031 27.417969-27.992188h57.011719l-18.304688-54.34375 63.644531 21.207032-21.222656-63.617188 63.617188 21.203125-24.101563-72.417969h27.808594zm0 0"/></svg>