<?xml version="1.0" encoding="UTF-8" standalone="no"?>
<!DOCTYPE svg PUBLIC "-//W3C//DTD SVG 1.1//EN" "http://www.w3.org/Graphics/SVG/1.1/DTD/svg11.dtd">
<svg version="1.1" xmlns="http://www.w3.org/2000/svg" xmlns:xlink="http://www.w3.org/1999/xlink" preserveAspectRatio="xMidYMid meet" viewBox="0 0 640 640" width="640" height="640"><defs><path d="M485.5 228.27L487.93 228.44L490.34 228.69L492.73 229.01L495.11 229.41L497.45 229.87L499.77 230.42L502.05 231.03L504.29 231.73L506.49 232.5L508.63 233.34L510.72 234.26L512.75 235.27L514.72 236.35L516.62 237.5L518.45 238.74L520.2 240.06L521.86 241.46L523.44 242.94L491.61 311.72L491.41 312.23L491.21 312.73L491.01 313.23L490.8 313.73L490.6 314.23L490.39 314.73L490.18 315.23L489.97 315.72L489.76 316.21L489.54 316.71L489.32 317.2L489.1 317.69L488.88 318.17L488.66 318.66L488.44 319.15L488.21 319.63L487.98 320.11L487.75 320.6L487.52 321.08L487.29 321.56L487.05 322.03L486.81 322.51L486.58 322.99L486.34 323.46L486.1 323.94L485.85 324.41L485.61 324.88L485.37 325.35L485.12 325.82L484.87 326.29L484.62 326.76L484.37 327.22L484.12 327.69L483.87 328.15L483.61 328.62L483.36 329.08L483.1 329.54L482.85 330.01L482.59 330.47L482.33 330.93L485.44 332.38L488.43 333.84L491.3 335.31L494.05 336.8L496.7 338.29L499.23 339.79L501.65 341.3L503.96 342.82L506.17 344.34L508.28 345.87L510.28 347.4L512.19 348.93L514 350.47L515.72 352.01L517.34 353.55L518.88 355.09L520.32 356.62L521.69 358.16L522.96 359.69L524.16 361.21L525.28 362.74L526.32 364.25L527.28 365.76L528.17 367.27L528.99 368.76L529.75 370.25L530.43 371.72L531.06 373.18L531.62 374.63L532.12 376.07L532.56 377.5L532.94 378.91L533.28 380.3L533.56 381.68L533.79 383.04L533.98 384.38L534.12 385.7L534.22 387.01L534.27 388.29L534.29 389.55L534.07 393.91L533.43 398.17L532.36 402.32L530.89 406.37L529.02 410.31L526.77 414.14L524.15 417.87L521.16 421.48L517.83 425L514.15 428.4L510.15 431.7L505.82 434.89L501.19 437.97L496.27 440.94L491.06 443.8L485.58 446.55L479.84 449.2L473.84 451.73L467.61 454.16L461.15 456.47L454.47 458.67L447.59 460.77L440.51 462.75L433.24 464.62L425.81 466.38L418.21 468.03L410.46 469.57L402.57 470.99L394.56 472.3L386.42 473.5L378.19 474.59L369.85 475.56L361.43 476.42L352.95 477.17L344.39 477.8L335.79 478.31L327.15 478.72L318.48 479L309.8 479.18L301.11 479.24L299.4 479.23L297.7 479.23L295.99 479.21L294.29 479.2L292.58 479.18L290.88 479.15L289.17 479.12L287.47 479.09L285.77 479.05L284.06 479.01L282.36 478.96L280.66 478.91L278.96 478.85L277.26 478.79L275.56 478.72L273.87 478.65L272.17 478.58L270.48 478.5L268.78 478.42L267.09 478.33L265.4 478.23L263.71 478.14L262.02 478.04L260.34 477.93L258.65 477.82L256.97 477.71L255.29 477.59L253.61 477.46L251.94 477.34L250.26 477.21L248.59 477.07L246.92 476.93L245.26 476.78L243.59 476.64L241.93 476.48L240.27 476.33L238.62 476.16L236.96 476L235.31 475.83L233.66 475.65L188.57 547.68L264.2 595.86L244.93 626.13L63.39 510.49L82.66 480.22L158.3 528.4L194.67 470.08L189.32 469.07L184.03 468.01L178.81 466.9L173.67 465.73L168.61 464.51L163.62 463.24L158.72 461.91L153.91 460.54L149.19 459.11L144.57 457.63L140.05 456.1L135.62 454.51L131.31 452.88L127.1 451.19L123.01 449.46L119.03 447.67L115.18 445.83L111.45 443.94L107.84 441.99L104.37 440L101.03 437.96L97.83 435.86L94.77 433.71L91.86 431.52L89.09 429.27L86.48 426.97L84.02 424.63L81.73 422.23L79.59 419.78L77.63 417.28L75.83 414.73L74.21 412.13L72.76 409.48L71.5 406.78L70.42 404.04L69.53 401.24L68.83 398.39L68.33 395.49L68.02 392.55L67.92 389.55L67.98 387.24L68.16 384.96L68.45 382.7L68.86 380.46L69.38 378.25L70.02 376.05L70.78 373.89L71.65 371.74L72.64 369.62L73.74 367.52L74.96 365.45L76.29 363.41L77.73 361.38L79.29 359.39L80.95 357.41L82.74 355.47L84.63 353.55L86.64 351.65L88.76 349.79L90.99 347.95L93.33 346.13L95.78 344.35L98.34 342.59L101.01 340.86L103.79 339.15L106.69 337.48L109.69 335.83L112.8 334.21L116.01 332.63L119.34 331.07L122.77 329.54L126.31 328.04L129.96 326.57L133.72 325.12L137.58 323.72L141.55 322.34L145.62 320.99L149.8 319.67L154.09 318.39L158.48 317.13L168.12 351.71L164.63 352.7L161.26 353.71L158 354.72L154.85 355.74L151.8 356.78L148.87 357.82L146.03 358.86L143.31 359.91L140.68 360.97L138.16 362.03L135.73 363.09L133.41 364.15L131.19 365.21L129.06 366.27L127.03 367.33L125.09 368.39L123.24 369.44L121.49 370.48L119.83 371.51L118.26 372.54L116.78 373.56L115.38 374.56L114.07 375.56L112.85 376.54L111.7 377.51L110.64 378.46L109.67 379.4L108.77 380.32L107.95 381.22L107.21 382.1L106.54 382.95L105.95 383.79L105.44 384.61L105 385.39L104.62 386.16L104.32 386.89L104.09 387.6L103.93 388.28L103.83 388.93L103.8 389.55L103.87 390.59L104.09 391.66L104.45 392.77L104.96 393.91L105.61 395.07L106.4 396.26L107.34 397.48L108.42 398.71L109.65 399.97L111.01 401.24L112.52 402.53L114.17 403.83L115.95 405.14L117.88 406.46L119.95 407.79L122.15 409.12L124.49 410.46L126.98 411.8L129.59 413.14L132.35 414.47L135.24 415.8L138.27 417.12L141.44 418.44L144.74 419.74L148.17 421.03L151.74 422.3L155.44 423.56L159.27 424.79L163.24 426.01L167.34 427.2L171.58 428.36L175.94 429.5L180.43 430.61L185.06 431.68L189.81 432.73L194.7 433.73L199.71 434.7L204.85 435.63L210.12 436.51L215.52 437.35L256.83 372.5L253.98 370.11L251.18 367.66L248.45 365.13L245.79 362.54L243.19 359.89L240.66 357.18L238.19 354.41L235.8 351.57L233.47 348.68L231.22 345.73L229.04 342.73L226.94 339.67L224.91 336.55L222.95 333.39L221.08 330.17L219.29 326.9L217.57 323.58L215.94 320.22L214.39 316.81L212.93 313.35L211.55 309.85L210.26 306.31L209.06 302.72L207.95 299.1L206.92 295.43L206 291.73L205.16 287.99L204.42 284.21L203.77 280.4L203.22 276.56L202.77 272.68L202.42 268.78L202.17 264.84L202.02 260.87L201.98 256.88L202.04 252.86L202.2 248.82L202.48 244.75L202.86 240.66L203.35 236.55L205.37 235.65L207.45 234.8L209.57 234L211.74 233.25L213.94 232.56L216.19 231.91L218.46 231.32L220.77 230.78L223.1 230.29L225.45 229.85L227.83 229.47L230.22 229.13L232.62 228.85L235.03 228.62L237.44 228.45L239.86 228.33L242.27 228.26L244.68 228.24L247.08 228.28L249.47 228.36L251.84 228.51L254.19 228.7L256.52 228.95L258.82 229.26L261.1 229.61L263.34 230.02L265.54 230.49L267.7 231.01L269.82 231.58L271.89 232.21L273.9 232.89L275.87 233.63L277.77 234.42L279.62 235.27L281.4 236.17L283.11 237.13L284.75 238.14L286.31 239.21L287.79 240.34L289.19 241.51L291.8 243.69L294.57 245.76L297.51 247.71L300.61 249.56L303.86 251.29L307.24 252.91L310.75 254.41L314.38 255.81L318.12 257.09L321.96 258.27L325.89 259.33L329.9 260.28L333.99 261.11L338.14 261.84L342.35 262.45L346.6 262.96L350.89 263.35L355.21 263.63L359.54 263.79L363.89 263.85L368.23 263.79L372.57 263.63L376.88 263.35L381.17 262.96L385.43 262.45L389.63 261.84L393.78 261.11L397.87 260.28L401.89 259.33L405.82 258.27L409.66 257.09L413.4 255.81L417.03 254.41L420.54 252.91L423.92 251.29L427.16 249.56L430.26 247.71L433.2 245.76L435.98 243.69L438.58 241.51L440.08 240.25L441.68 239.04L443.36 237.89L445.13 236.8L446.97 235.78L448.88 234.81L450.86 233.91L452.91 233.07L455.01 232.3L457.17 231.58L459.37 230.94L461.62 230.36L463.91 229.84L466.23 229.39L468.58 229.01L470.96 228.7L473.36 228.45L475.78 228.28L478.2 228.17L480.64 228.13L483.07 228.16L485.5 228.27ZM453.27 367.22L449.78 370.29L446.21 373.25L442.55 376.09L438.81 378.82L434.99 381.43L431.09 383.92L427.13 386.29L423.09 388.53L418.99 390.66L414.83 392.65L410.62 394.52L406.34 396.26L402.02 397.87L397.65 399.35L393.23 400.7L388.77 401.92L384.28 403L379.75 403.94L375.18 404.74L370.59 405.41L365.98 405.93L361.34 406.31L356.69 406.55L352.02 406.64L347.34 406.59L342.66 406.39L337.96 406.04L333.27 405.54L328.58 404.88L323.9 404.07L319.22 403.11L314.56 401.99L309.91 400.71L305.28 399.28L300.67 397.68L296.09 395.92L291.54 394L287.02 391.91L255.28 441.72L256.36 441.8L257.44 441.88L258.52 441.95L259.61 442.02L260.7 442.09L261.79 442.16L262.89 442.23L263.99 442.29L265.1 442.36L266.21 442.42L267.32 442.48L268.43 442.54L269.55 442.59L270.67 442.65L271.8 442.7L272.93 442.75L274.06 442.8L275.2 442.85L276.34 442.89L277.48 442.93L278.63 442.97L279.78 443.01L280.93 443.05L282.09 443.09L283.25 443.12L284.42 443.15L285.58 443.18L286.76 443.2L287.93 443.23L289.11 443.25L290.29 443.27L291.48 443.29L292.67 443.31L293.87 443.32L295.06 443.33L296.26 443.34L297.47 443.35L298.68 443.36L299.89 443.36L301.11 443.36L310.57 443.3L319.82 443.1L328.85 442.78L337.65 442.35L346.24 441.8L354.6 441.14L362.74 440.38L370.65 439.52L378.33 438.56L385.79 437.52L393.02 436.4L400.02 435.19L406.79 433.91L413.33 432.56L419.64 431.15L425.71 429.68L431.55 428.16L437.15 426.58L442.51 424.96L447.63 423.31L452.52 421.61L457.17 419.89L461.57 418.15L465.73 416.38L469.65 414.6L473.32 412.82L476.75 411.02L479.93 409.23L482.86 407.44L485.54 405.66L487.97 403.9L490.15 402.16L492.08 400.44L493.75 398.76L495.17 397.11L496.34 395.5L497.25 393.93L497.9 392.41L498.29 390.95L498.42 389.55L498.39 389.02L498.32 388.48L498.2 387.92L498.03 387.34L497.82 386.75L497.56 386.15L497.25 385.53L496.89 384.9L496.48 384.25L496.03 383.6L495.53 382.93L494.98 382.25L494.38 381.56L493.73 380.86L493.04 380.15L492.3 379.43L491.51 378.7L490.67 377.97L489.78 377.22L488.85 376.47L487.86 375.72L486.83 374.95L485.75 374.18L484.62 373.41L483.45 372.63L482.22 371.85L480.95 371.06L479.63 370.27L478.26 369.48L476.84 368.69L475.37 367.89L473.85 367.09L472.29 366.29L470.67 365.5L469.01 364.7L467.3 363.9L465.54 363.11L463.73 362.31L461.87 361.52L459.97 360.73L456.67 364.03L453.27 367.22Z" id="b2G6u2lSPj"></path><path d="M538.86 209.62L535.93 207.66L532.94 205.82L529.9 204.11L526.8 202.52L523.64 201.04L520.45 199.68L517.21 198.44L513.93 197.32L510.62 196.31L507.28 195.41L503.92 194.62L500.54 193.94L497.14 193.38L493.73 192.92L490.31 192.56L486.89 192.32L483.47 192.17L480.05 192.13L476.64 192.19L473.25 192.35L469.88 192.61L466.52 192.97L463.2 193.43L459.9 193.98L456.64 194.62L453.41 195.36L450.23 196.19L447.1 197.1L444.02 198.11L441 199.21L438.03 200.39L435.13 201.66L432.3 203.01L429.54 204.44L426.86 205.96L424.26 207.55L421.74 209.23L419.32 210.98L416.99 212.81L414.76 214.71L413.18 216.01L411.46 217.24L409.59 218.4L407.59 219.5L405.47 220.53L403.23 221.49L400.88 222.39L398.42 223.22L395.88 223.99L393.24 224.68L390.53 225.31L387.75 225.88L384.9 226.38L382 226.81L379.05 227.18L376.07 227.48L373.05 227.71L370.01 227.87L366.95 227.97L363.89 228.01L360.82 227.97L357.76 227.87L354.72 227.71L351.7 227.48L348.72 227.18L345.77 226.81L342.87 226.38L340.02 225.88L337.24 225.31L334.53 224.68L331.9 223.99L329.35 223.22L326.9 222.39L324.54 221.49L322.3 220.53L320.18 219.5L318.18 218.4L316.32 217.24L314.59 216.01L313.02 214.71L311.28 213.22L309.48 211.78L307.62 210.39L305.7 209.05L303.73 207.77L301.7 206.54L299.63 205.36L297.5 204.23L295.33 203.16L293.11 202.14L290.85 201.17L288.55 200.25L286.21 199.39L283.83 198.57L281.42 197.81L278.98 197.1L276.5 196.44L273.99 195.84L271.46 195.28L268.9 194.78L266.32 194.32L263.72 193.92L261.1 193.57L258.46 193.27L255.81 193.03L253.14 192.83L250.46 192.68L247.77 192.59L245.08 192.54L242.38 192.55L239.67 192.6L236.97 192.71L234.26 192.87L231.56 193.07L228.86 193.33L226.17 193.64L223.49 194L220.82 194.4L218.16 194.86L215.52 195.37L216.04 194.2L216.58 193.04L217.12 191.88L217.67 190.72L218.22 189.57L218.79 188.42L219.36 187.27L219.94 186.13L220.52 184.99L221.12 183.85L221.72 182.72L222.34 181.6L222.96 180.47L223.59 179.36L224.23 178.24L224.88 177.14L225.53 176.03L226.2 174.93L226.88 173.84L227.56 172.75L228.26 171.67L228.96 170.6L229.68 169.52L230.4 168.46L231.14 167.4L231.88 166.35L232.64 165.3L233.41 164.26L234.18 163.23L234.97 162.2L235.77 161.18L236.58 160.17L237.41 159.16L238.24 158.16L239.09 157.17L239.94 156.18L240.81 155.2L241.69 154.23L242.59 153.27L243.49 152.32L359.94 13.87L567.94 146.78L538.86 209.62Z" id="c360tCtCHr"></path></defs><g><g><use xlink:href="#b2G6u2lSPj" opacity="1" fill="#000000" fill-opacity="1"></use><g><use xlink:href="#b2G6u2lSPj" opacity="1" fill-opacity="0" stroke="#000000" stroke-width="1" stroke-opacity="0"></use></g></g><g><use xlink:href="#c360tCtCHr" opacity="1" fill="#000000" fill-opacity="1"></use><g><use xlink:href="#c360tCtCHr" opacity="1" fill-opacity="0" stroke="#000000" stroke-width="1" stroke-opacity="0"></use></g></g></g></svg>